<svg width="" height="" viewBox="0 0 84 84" fill="none" xmlns="http://www.w3.org/2000/svg">
<g id="Arrow">
<g id="Ellipse 1" filter="url(#filter0_d_8_10022)">
<circle cx="32" cy="32" r="32" transform="matrix(1 -8.74228e-08 -8.74228e-08 -1 10 72)" fill="#F2F2F2"/>
</g>
<path id="Vector 1" d="M60.0607 38.9393C60.6464 39.5251 60.6464 40.4749 60.0607 41.0607L50.5147 50.6066C49.9289 51.1924 48.9792 51.1924 48.3934 50.6066C47.8076 50.0208 47.8076 49.0711 48.3934 48.4853L56.8787 40L48.3934 31.5147C47.8076 30.9289 47.8076 29.9792 48.3934 29.3934C48.9792 28.8076 49.9289 28.8076 50.5147 29.3934L60.0607 38.9393ZM25 41.5C24.1716 41.5 23.5 40.8284 23.5 40C23.5 39.1716 24.1716 38.5 25 38.5V41.5ZM59 41.5H25V38.5H59V41.5Z" fill="black"/>
</g>
<defs>
<filter id="filter0_d_8_10022" x="0" y="0" width="84" height="84" filterUnits="userSpaceOnUse" color-interpolation-filters="sRGB">
<feFlood flood-opacity="0" result="BackgroundImageFix"/>
<feColorMatrix in="SourceAlpha" type="matrix" values="0 0 0 0 0 0 0 0 0 0 0 0 0 0 0 0 0 0 127 0" result="hardAlpha"/>
<feOffset dy="2"/>
<feGaussianBlur stdDeviation="5"/>
<feComposite in2="hardAlpha" operator="out"/>
<feColorMatrix type="matrix" values="0 0 0 0 0 0 0 0 0 0 0 0 0 0 0 0 0 0 0.15 0"/>
<feBlend mode="normal" in2="BackgroundImageFix" result="effect1_dropShadow_8_10022"/>
<feBlend mode="normal" in="SourceGraphic" in2="effect1_dropShadow_8_10022" result="shape"/>
</filter>
</defs>
</svg>
