<svg width="" height="" viewBox="0 0 33 34" fill="none" xmlns="http://www.w3.org/2000/svg">
<g id="search">
<path id="Vector" fill-rule="evenodd" clip-rule="evenodd" d="M15.125 5.66668C9.80926 5.66668 5.5 10.1065 5.5 15.5833C5.5 21.0602 9.80926 25.5 15.125 25.5C20.4407 25.5 24.75 21.0602 24.75 15.5833C24.75 10.1065 20.4407 5.66668 15.125 5.66668ZM2.75 15.5833C2.75 8.54171 8.29048 2.83334 15.125 2.83334C21.9595 2.83334 27.5 8.54171 27.5 15.5833C27.5 22.625 21.9595 28.3333 15.125 28.3333C8.29048 28.3333 2.75 22.625 2.75 15.5833Z" fill="black"/>
<path id="Vector_2" fill-rule="evenodd" clip-rule="evenodd" d="M21.9902 22.6566C22.5272 22.1034 23.3978 22.1034 23.9348 22.6566L29.8473 28.7483C30.3842 29.3015 30.3842 30.1985 29.8473 30.7517C29.3103 31.305 28.4397 31.305 27.9027 30.7517L21.9902 24.6601C21.4533 24.1068 21.4533 23.2098 21.9902 22.6566Z" fill="black"/>
</g>
</svg>
